<svg width="125" height="55" xmlns="http://www.w3.org/2000/svg" class="logo-img kl-default-logo">
 <g>
  <title>Layer 1</title>
  <path id="svg_2" fill="#464646" d="m7.8785,25.428499l0.783,0c0.725,0 1.247,-0.22716 1.566,-0.681499l4.756001,-6.901999c0.261,-0.377001 0.558249,-0.633171 0.891749,-0.768501c0.3335,-0.13533 0.741911,-0.202999 1.22525,-0.202999l4.263,0l-6.264001,8.540499c-0.22233,0.30934 -0.454329,0.5655 -0.696,0.768501c-0.24167,0.202999 -0.48817,0.372169 -0.7395,0.5075c0.367331,0.13533 0.703251,0.321419 1.007751,0.558249c0.3045,0.236832 0.58242,0.553411 0.83375,0.949751l6.38,9.802l-4.379,0c-0.280331,0 -0.519581,-0.019329 -0.717751,-0.057999c-0.19817,-0.03867 -0.369749,-0.096672 -0.51475,-0.174004c-0.145,-0.077328 -0.27067,-0.171577 -0.377,-0.282745c-0.10633,-0.111172 -0.20783,-0.23925 -0.304501,-0.384254l-4.785,-7.351498c-0.174,-0.27067 -0.39392,-0.46158 -0.65975,-0.57275c-0.26583,-0.11117 -0.62591,-0.16675 -1.08025,-0.16675l-1.189,0l0,8.99l-4.901,0l0,-21.126499l4.901,0l0,8.554998zm35.467001,12.571501l-3.799,0c-0.425331,0 -0.775753,-0.099079 -1.05125,-0.297253c-0.275501,-0.19817 -0.466412,-0.451908 -0.57275,-0.761246l-1.247002,-3.683002l-8.032999,0l-1.247,3.683002c-0.09667,0.270668 -0.28517,0.514748 -0.5655,0.73225c-0.280331,0.217499 -0.623501,0.326248 -1.029499,0.326248l-3.828001,0l8.177999,-21.126499l5.017,0l8.178001,21.126499zm-13.572001,-8.0765l5.770998,0l-1.942997,-5.7855c-0.125671,-0.36734 -0.273083,-0.79991 -0.442253,-1.29775c-0.169167,-0.497839 -0.335918,-1.036749 -0.500248,-1.616751c-0.154671,0.589672 -0.314171,1.13583 -0.4785,1.6385c-0.16433,0.50267 -0.319,0.93767 -0.464001,1.305l-1.942999,5.7565zm20.184,4.161499l7.829998,0l0,3.915001l-12.730999,0l0,-21.126499l4.901001,0l0,17.211498zm15.050999,0l7.830002,0l0,3.915001l-12.731003,0l0,-21.126499l4.901001,0l0,17.211498zm17.196999,-4.117998l0,8.032999l-4.901001,0l0,-8.032999l-7.655998,-13.0935l4.320999,0c0.425339,0 0.763664,0.099079 1.014999,0.297249c0.251335,0.19817 0.454346,0.45192 0.609001,0.761251l2.987,6.147999c0.241669,0.493 0.464005,0.94733 0.667,1.363001c0.203003,0.415668 0.381836,0.8265 0.536499,1.2325c0.145004,-0.41567 0.319,-0.831331 0.522003,-1.247002c0.203003,-0.415668 0.420502,-0.86516 0.652504,-1.348499l2.957993,-6.147999c0.058006,-0.125671 0.137756,-0.251331 0.23925,-0.377001c0.101501,-0.125671 0.217506,-0.23925 0.348007,-0.340752c0.130493,-0.1015 0.280327,-0.18367 0.449493,-0.246498c0.169174,-0.062832 0.355255,-0.09425 0.55825,-0.09425l4.350006,0l-7.656006,13.0935zm25.868004,8.032999l-3.799004,0c-0.425331,0 -0.775749,-0.099079 -1.051247,-0.297253c-0.275497,-0.19817 -0.466408,-0.451908 -0.572754,-0.761246l-1.246994,-3.683002l-8.033005,0l-1.247002,3.683002c-0.096664,0.270668 -0.285164,0.514748 -0.565498,0.73225c-0.280342,0.217499 -0.623497,0.326248 -1.029495,0.326248l-3.828003,0l8.178001,-21.126499l5.016998,0l8.178001,21.126499zm-13.571999,-8.0765l5.770996,0l-1.943001,-5.7855c-0.125671,-0.36734 -0.273079,-0.79991 -0.442245,-1.29775c-0.169167,-0.497839 -0.335922,-1.036749 -0.500252,-1.616751c-0.154671,0.589672 -0.314163,1.13583 -0.4785,1.6385c-0.164337,0.50267 -0.319,0.93767 -0.463997,1.305l-1.943001,5.7565zm27.056999,-8.758001c-0.145004,0.232 -0.297249,0.406 -0.456749,0.522001c-0.1595,0.116001 -0.364922,0.174 -0.616257,0.174c-0.222328,0 -0.461578,-0.07008 -0.717743,-0.210251c-0.256172,-0.140169 -0.546165,-0.297249 -0.870003,-0.471249c-0.323837,-0.174 -0.693581,-0.331081 -1.109253,-0.471251c-0.415665,-0.140169 -0.889328,-0.210249 -1.420998,-0.210249c-0.918327,0 -1.602249,0.195749 -2.05175,0.58725c-0.449501,0.3915 -0.674248,0.92075 -0.674248,1.587749c0,0.425329 0.13533,0.77817 0.405998,1.0585c0.270668,0.280329 0.625923,0.521999 1.06575,0.725c0.439842,0.202999 0.942497,0.38908 1.507996,0.558249c0.565506,0.16917 1.143082,0.35767 1.73275,0.5655c0.589676,0.20783 1.167252,0.45192 1.73275,0.73225c0.565506,0.280331 1.068161,0.638 1.508003,1.073c0.439827,0.434999 0.795082,0.964251 1.06575,1.587749c0.270668,0.623501 0.405998,1.37508 0.405998,2.254751c0,0.976337 -0.169167,1.889832 -0.5075,2.740501c-0.338341,0.85067 -0.828911,1.592579 -1.471748,2.225746c-0.642838,0.633171 -1.435493,1.131004 -2.377998,1.4935c-0.942505,0.362503 -2.013084,0.543755 -3.211754,0.543755c-0.657341,0 -1.326744,-0.067673 -2.008247,-0.203003c-0.681503,-0.13533 -1.341248,-0.326252 -1.979248,-0.57275c-0.638016,-0.246502 -1.237335,-0.53891 -1.798004,-0.877247c-0.560669,-0.338333 -1.048828,-0.715332 -1.4645,-1.131004l1.450005,-2.290997c0.106331,-0.174004 0.256165,-0.314171 0.449501,-0.420502c0.193329,-0.106331 0.401154,-0.1595 0.623497,-0.1595c0.290001,0 0.582413,0.091831 0.877251,0.275501c0.294838,0.18367 0.628326,0.386669 1.000496,0.608997c0.372169,0.222332 0.799927,0.425331 1.283257,0.609001c0.48333,0.18367 1.053658,0.275501 1.710999,0.275501c0.889336,0 1.580498,-0.195751 2.073502,-0.58725c0.492996,-0.391502 0.739494,-1.012581 0.739494,-1.863251c0,-0.493 -0.13533,-0.894157 -0.405998,-1.203501c-0.270668,-0.30933 -0.625923,-0.5655 -1.06575,-0.768499c-0.439842,-0.202999 -0.940079,-0.38183 -1.500748,-0.536501c-0.560669,-0.154669 -1.135834,-0.32625 -1.725502,-0.51475c-0.589668,-0.188499 -1.164833,-0.4205 -1.725502,-0.695999c-0.560669,-0.275501 -1.060921,-0.638 -1.500748,-1.0875c-0.439827,-0.449501 -0.795082,-1.01016 -1.06575,-1.682001c-0.270668,-0.671841 -0.405998,-1.50074 -0.405998,-2.48675c0,-0.792669 0.1595,-1.566 0.4785,-2.32c0.319,-0.754 0.787827,-1.425831 1.406502,-2.015501c0.618668,-0.589668 1.377495,-1.060909 2.276497,-1.41375c0.899002,-0.352839 1.92849,-0.529249 3.088501,-0.529249c0.647667,0 1.278412,0.050749 1.89225,0.152248c0.613831,0.101501 1.196236,0.251331 1.747246,0.449501c0.551003,0.19817 1.06575,0.434999 1.54425,0.710501c0.4785,0.275499 0.90625,0.58725 1.283249,0.935249l-1.217995,2.276499z"/>
 </g>
</svg>