<?xml version="1.0" encoding="UTF-8"?>
<!DOCTYPE svg PUBLIC "-//W3C//DTD SVG 1.1//EN" "http://www.w3.org/Graphics/SVG/1.1/DTD/svg11.dtd">
<!-- Creator: CorelDRAW -->
<svg xmlns="http://www.w3.org/2000/svg" xml:space="preserve" width="128mm" height="63.5mm" style="shape-rendering:geometricPrecision; text-rendering:geometricPrecision; image-rendering:optimizeQuality; fill-rule:evenodd; clip-rule:evenodd"
viewBox="0 0 128 63.5"
 xmlns:xlink="http://www.w3.org/1999/xlink">
 <defs>
  <style type="text/css">
   <![CDATA[
    .fil0 {fill:#A1A1A1}
    .fil1 {fill:#A2CA2B}
   ]]>
  </style>
 </defs>
 <g id="Layer_x0020_1">
  <metadata id="CorelCorpID_0Corel-Layer"/>
  <g id="_216481520">
   <path id="_213167992" class="fil0" d="M123.397 45.1199l0.4535 -1.6209c0.1248,-0.4423 0.2382,-1.0206 0.3516,-1.474l0.0227 0c0.1132,0.4534 0.2493,1.0202 0.3853,1.474l0.4761 1.6209 -1.6892 0zm-12.754 -22.3527l1.7344 0 0 -3.0722 2.7434 0 0 -1.4057 -2.7434 0 0 -1.7458 2.9363 0 0 -1.4173 -4.6707 0 0 7.641zm-3.2309 -7.641l0 7.641 1.7344 0 0 -7.641 -1.7344 0zm-4.7386 7.641l1.7344 0 0 -6.1897 2.086 0 0 -1.4513 -5.8727 0 0 1.4513 2.0523 0 0 6.1897zm-5.9407 -3.2537l0.4533 -1.6209c0.125,-0.4424 0.2385,-1.0206 0.3518,-1.474l0.0225 0c0.1136,0.4534 0.2495,1.0202 0.3853,1.474l0.4764 1.6209 -1.6893 0zm1.9388 1.2925l0.5893 1.9612 1.8591 0 -2.3695 -7.641 -2.2672 0 -2.3351 7.641 1.7909 0 0.5442 -1.9612 2.1883 0zm-7.1989 -5.6798l0 7.641 1.7345 0 0 -7.641 -1.7345 0zm-6.4165 7.2896c0.4307,0.238 1.2924,0.4763 2.1656,0.4763 2.0972,0 3.0833,-1.0999 3.0833,-2.3809 0,-1.0771 -0.6349,-1.7799 -1.9838,-2.2787 -0.9865,-0.374 -1.4173,-0.5893 -1.4173,-1.0771 0,-0.3965 0.3627,-0.7368 1.1109,-0.7368 0.7484,0 1.2927,0.2154 1.5986,0.3629l0.3856 -1.3831c-0.4537,-0.2153 -1.0885,-0.3967 -1.9501,-0.3967 -1.8025,0 -2.8908,0.9976 -2.8908,2.3012 0,1.111 0.8276,1.8138 2.0976,2.256 0.918,0.3289 1.2809,0.6008 1.2809,1.0771 0,0.4988 -0.4197,0.8276 -1.2131,0.8276 -0.7371,0 -1.4513,-0.2382 -1.916,-0.4762l-0.3514 1.4284zm-2.9361 -7.2896l0 7.641 1.7345 0 0 -7.641 -1.7345 0zm-6.2353 7.641l0 -2.3012c0,-1.247 -0.0227,-2.324 -0.0681,-3.3331l0.034 -0.0115c0.3742,0.8957 0.8731,1.8822 1.3265,2.6983l1.6325 2.9475 1.8141 0 0 -7.641 -1.5874 0 0 2.2221c0,1.1564 0.034,2.188 0.1475,3.1968l-0.0342 0c-0.34,-0.8616 -0.7936,-1.8138 -1.247,-2.6185l-1.5872 -2.8004 -2.0178 0 0 7.641 1.5871 0zm-4.8179 -7.641l0 7.641 1.7344 0 0 -7.641 -1.7344 0zm29.1467 20.4444l1.7346 0 0 -6.1898 2.0861 0 0 -1.4512 -5.8728 0 0 1.4512 2.0521 0 0 6.1898zm-5.9406 -3.2537l0.4534 -1.621c0.125,-0.4423 0.2383,-1.0205 0.3518,-1.4739l0.0225 0c0.1133,0.4534 0.2494,1.0202 0.3853,1.4739l0.4764 1.621 -1.6894 0zm1.9387 1.2924l0.5895 1.9613 1.8592 0 -2.3695 -7.641 -2.2673 0 -2.3351 7.641 1.7909 0 0.5442 -1.9613 2.1881 0zm-11.0761 1.9613l1.7119 0 0 -2.4941 0.6576 -0.8048 1.8703 3.2989 2.018 0 -2.6642 -4.3874 2.5282 -3.2536 -2.12 0 -1.7346 2.5394c-0.17,0.272 -0.3515,0.5443 -0.5214,0.8391l-0.0339 0 0 -3.3785 -1.7119 0 0 7.641zm-5.4075 -3.2537l0.4533 -1.621c0.125,-0.4423 0.2383,-1.0205 0.3518,-1.4739l0.0225 0c0.1135,0.4534 0.2495,1.0202 0.3855,1.4739l0.4762 1.621 -1.6893 0zm1.9386 1.2924l0.5895 1.9613 1.8592 0 -2.3696 -7.641 -2.2672 0 -2.3351 7.641 1.7909 0 0.5442 -1.9613 2.1881 0zm-11.0873 1.9613l5.9405 0 0 -1.4285 -3.6166 0 0 -0.0454 3.5599 -5.1695 0 -0.9976 -5.5438 0 0 1.4284 3.2991 0 0 0.0454 -3.6391 5.2375 0 0.9297zm54.7563 10.8418l0.5893 1.9612 1.8594 0 -2.3695 -7.641 -2.2672 0 -2.3353 7.641 1.7911 0 0.5442 -1.9612 2.188 0zm-7.1988 -5.6798l0 7.641 1.7344 0 0 -7.641 -1.7344 0zm-6.4166 7.2896c0.431,0.238 1.2925,0.4763 2.1655,0.4763 2.0974,0 3.0835,-1.0999 3.0835,-2.3809 0,-1.0771 -0.6348,-1.7799 -1.9838,-2.2787 -0.9865,-0.3739 -1.4173,-0.5893 -1.4173,-1.0771 0,-0.3965 0.3629,-0.7368 1.1111,-0.7368 0.7481,0 1.2924,0.2154 1.5984,0.3629l0.3857 -1.383c-0.4537,-0.2154 -1.0885,-0.3968 -1.9502,-0.3968 -1.8023,0 -2.8908,0.9976 -2.8908,2.3012 0,1.111 0.8277,1.8138 2.0974,2.256 0.9184,0.3289 1.2812,0.6009 1.2812,1.0771 0,0.4988 -0.4197,0.8276 -1.213,0.8276 -0.7372,0 -1.4514,-0.2382 -1.9163,-0.4762l-0.3514 1.4284zm-1.2129 -4.2853l-2.8115 0 0 -1.587 2.9817 0 0 -1.4173 -4.7161 0 0 7.641 4.8746 0 0 -1.4169 -3.1402 0 0 -1.8139 2.8115 0 0 -1.4059zm-10.7815 4.6367l0 -2.3012c0,-1.247 -0.0224,-2.324 -0.0679,-3.3331l0.034 -0.0114c0.3743,0.8956 0.873,1.8821 1.3264,2.6983l1.6324 2.9474 1.8142 0 0 -7.641 -1.5872 0 0 2.2221c0,1.1565 0.034,2.1881 0.1473,3.1968l-0.034 0c-0.3403,-0.8616 -0.7935,-1.8138 -1.2471,-2.6185l-1.5873 -2.8004 -2.0177 0 0 7.641 1.5869 0zm-6.3935 -6.394c1.1901,0 1.8476,1.1791 1.8476,2.551 0,1.485 -0.6687,2.596 -1.8362,2.596 -1.1566,0 -1.8593,-1.0542 -1.8593,-2.5506 0,-1.4853 0.6801,-2.5964 1.8479,-2.5964zm0.0453 -1.3715c-2.2561,0 -3.7185,1.7118 -3.7185,4.0019 0,2.1766 1.3266,3.8885 3.5936,3.8885 2.2332,0 3.7527,-1.5193 3.7527,-4.0248 0,-2.1084 -1.2812,-3.8656 -3.6278,-3.8656zm-9.5231 1.4624c0.1474,-0.034 0.3967,-0.0679 0.7821,-0.0679 1.4853,0 2.415,0.8387 2.4036,2.426 0,1.8249 -1.0202,2.6866 -2.5846,2.6755 -0.2154,0 -0.4537,0 -0.6011,-0.0341l0 -4.9995zm-1.7345 6.2691c0.431,0.0566 1.0656,0.1135 1.9613,0.1135 1.4965,0 2.7208,-0.3174 3.5257,-0.9866 0.7367,-0.6233 1.2695,-1.6323 1.2695,-3.0948 0,-1.3491 -0.4988,-2.2901 -1.2921,-2.8795 -0.737,-0.5553 -1.6779,-0.8161 -3.1288,-0.8161 -0.8731,0 -1.7007,0.0565 -2.3356,0.1585l0 7.505zm-6.2353 0.034l0 -2.3012c0,-1.247 -0.0227,-2.324 -0.0681,-3.3331l0.034 -0.0114c0.3742,0.8956 0.8731,1.8821 1.3265,2.6983l1.6325 2.9474 1.8141 0 0 -7.641 -1.5874 0 0 2.2221c0,1.1565 0.034,2.1881 0.1475,3.1968l-0.0342 0c-0.34,-0.8616 -0.7936,-1.8138 -1.247,-2.6185l-1.5872 -2.8004 -2.0178 0 0 7.641 1.5871 0zm-4.8179 -7.641l0 7.641 1.7344 0 0 -7.641 -1.7344 0z"/>
   <path id="_213168664" class="fil1" d="M31.7822 0.1832c17.4341,0 31.5671,14.133 31.5671,31.567 0,17.4337 -14.133,31.5667 -31.5671,31.5667 -6.3343,0 -12.2319,-1.8671 -17.175,-5.0792l-6.9737 0c-1.2865,0 -2.3388,-1.0522 -2.3388,-2.3387l0 -6.9736c-3.2124,-4.943 -5.079,-10.8409 -5.079,-17.1752 0,-17.434 14.1329,-31.567 31.5665,-31.567zm19.1279 19.978l0 18.3603c0,1.9123 -1.7894,4.6031 -5.1908,4.8173l0 -18.3626c0,-1.9116 1.7894,-4.6018 5.1908,-4.815zm-9.4982 0l-14.4437 0c-1.9106,0 -4.603,1.7887 -4.8163,5.1906l11.1124 0 -10.0343 14.8995c-0.6549,0.9031 -1.0074,1.9652 -1.0781,3.0875l14.4447 0c1.9087,0 4.6016,-1.7897 4.8153,-5.1912l-11.1121 0 10.0353 -14.8986c0.6545,-0.9047 1.0071,-1.9655 1.0768,-3.0878zm-23.566 0l0 18.3603c0,1.9123 -1.7895,4.6031 -5.1912,4.8173l0 -18.3626c0,-1.9116 1.79,-4.6018 5.1912,-4.815z"/>
  </g>
 </g>
</svg>
